<mxfile host="65bd71144e">
    <diagram id="SKV8PHPIui5c4Fc6kAOh" name="Page-1">
        <mxGraphModel dx="623" dy="291" grid="1" gridSize="10" guides="1" tooltips="1" connect="1" arrows="1" fold="1" page="1" pageScale="1" pageWidth="850" pageHeight="1100" math="0" shadow="0">
            <root>
                <mxCell id="0"/>
                <mxCell id="1" parent="0"/>
                <mxCell id="11" style="edgeStyle=orthogonalEdgeStyle;html=1;entryX=0.5;entryY=1;entryDx=0;entryDy=0;endArrow=diamond;endFill=0;" parent="1" source="2" target="8" edge="1">
                    <mxGeometry relative="1" as="geometry"/>
                </mxCell>
                <mxCell id="14" style="edgeStyle=orthogonalEdgeStyle;html=1;endArrow=diamond;endFill=0;entryX=0.5;entryY=1;entryDx=0;entryDy=0;" parent="1" source="2" target="12" edge="1">
                    <mxGeometry relative="1" as="geometry">
                        <Array as="points">
                            <mxPoint x="460" y="100"/>
                            <mxPoint x="425" y="100"/>
                        </Array>
                    </mxGeometry>
                </mxCell>
                <mxCell id="2" value="Hardware Abstraction Layer (Interfaces of core hardware drivers)" style="html=1;align=center;verticalAlign=top;rounded=1;absoluteArcSize=1;arcSize=10;dashed=0;" parent="1" vertex="1">
                    <mxGeometry x="250" y="260" width="360" height="70" as="geometry"/>
                </mxCell>
                <mxCell id="3" value="ISPI" style="html=1;align=center;verticalAlign=top;rounded=1;absoluteArcSize=1;arcSize=10;dashed=0;" parent="1" vertex="1">
                    <mxGeometry x="250" y="290" width="70" height="40" as="geometry"/>
                </mxCell>
                <mxCell id="4" value="IGPIO" style="html=1;align=center;verticalAlign=top;rounded=1;absoluteArcSize=1;arcSize=10;dashed=0;" parent="1" vertex="1">
                    <mxGeometry x="320" y="290" width="70" height="40" as="geometry"/>
                </mxCell>
                <mxCell id="5" value="IUART" style="html=1;align=center;verticalAlign=top;rounded=1;absoluteArcSize=1;arcSize=10;dashed=0;" parent="1" vertex="1">
                    <mxGeometry x="390" y="290" width="70" height="40" as="geometry"/>
                </mxCell>
                <mxCell id="6" value="II2C" style="html=1;align=center;verticalAlign=top;rounded=1;absoluteArcSize=1;arcSize=10;dashed=0;" parent="1" vertex="1">
                    <mxGeometry x="460" y="290" width="70" height="40" as="geometry"/>
                </mxCell>
                <mxCell id="7" value="..." style="html=1;align=center;verticalAlign=top;rounded=1;absoluteArcSize=1;arcSize=10;dashed=0;" parent="1" vertex="1">
                    <mxGeometry x="530" y="290" width="80" height="40" as="geometry"/>
                </mxCell>
                <mxCell id="13" style="edgeStyle=orthogonalEdgeStyle;html=1;entryX=0.5;entryY=1;entryDx=0;entryDy=0;endArrow=diamond;endFill=0;" parent="1" source="8" target="12" edge="1">
                    <mxGeometry relative="1" as="geometry"/>
                </mxCell>
                <mxCell id="8" value="Device Drivers &lt;br&gt;(decoupled from underlying&lt;br&gt;&amp;nbsp;hardware driver implementation)" style="html=1;align=center;verticalAlign=top;rounded=1;absoluteArcSize=1;arcSize=10;dashed=0;" parent="1" vertex="1">
                    <mxGeometry x="250" y="120" width="180" height="100" as="geometry"/>
                </mxCell>
                <mxCell id="9" value="IMU" style="html=1;align=center;verticalAlign=top;rounded=1;absoluteArcSize=1;arcSize=10;dashed=0;" parent="1" vertex="1">
                    <mxGeometry x="250" y="180" width="70" height="40" as="geometry"/>
                </mxCell>
                <mxCell id="10" value="etc etc" style="html=1;align=center;verticalAlign=top;rounded=1;absoluteArcSize=1;arcSize=10;dashed=0;" parent="1" vertex="1">
                    <mxGeometry x="320" y="180" width="70" height="40" as="geometry"/>
                </mxCell>
                <mxCell id="12" value="Libraries&lt;br&gt;(Business logic that uses a combination of device and&lt;br&gt;hardware driver interfaces)" style="html=1;align=center;verticalAlign=top;rounded=1;absoluteArcSize=1;arcSize=10;dashed=0;" parent="1" vertex="1">
                    <mxGeometry x="250" y="10" width="350" height="60" as="geometry"/>
                </mxCell>
                <mxCell id="16" style="edgeStyle=orthogonalEdgeStyle;html=1;entryX=0.5;entryY=1;entryDx=0;entryDy=0;endArrow=classicThin;endFill=0;" parent="1" source="15" target="5" edge="1">
                    <mxGeometry relative="1" as="geometry"/>
                </mxCell>
                <mxCell id="15" value="Hardware-specific implementations of interfaces" style="html=1;align=center;verticalAlign=top;rounded=1;absoluteArcSize=1;arcSize=10;dashed=0;" parent="1" vertex="1">
                    <mxGeometry x="245" y="370" width="360" height="70" as="geometry"/>
                </mxCell>
                <mxCell id="17" value="MCU X&lt;br&gt;implementation" style="html=1;align=center;verticalAlign=top;rounded=1;absoluteArcSize=1;arcSize=10;dashed=0;" parent="1" vertex="1">
                    <mxGeometry x="262.5" y="410" width="117.5" height="70" as="geometry"/>
                </mxCell>
                <mxCell id="18" value="MCU Y&lt;br&gt;implementation" style="html=1;align=center;verticalAlign=top;rounded=1;absoluteArcSize=1;arcSize=10;dashed=0;" parent="1" vertex="1">
                    <mxGeometry x="410" y="410" width="120" height="70" as="geometry"/>
                </mxCell>
                <mxCell id="19" value="" style="shape=curlyBracket;whiteSpace=wrap;html=1;rounded=1;" parent="1" vertex="1">
                    <mxGeometry x="210" y="400" width="20" height="90" as="geometry"/>
                </mxCell>
                <mxCell id="20" value="" style="shape=curlyBracket;whiteSpace=wrap;html=1;rounded=1;flipH=1;" parent="1" vertex="1">
                    <mxGeometry x="620" y="400" width="20" height="90" as="geometry"/>
                </mxCell>
                <mxCell id="22" value="&lt;h1&gt;&lt;br&gt;&lt;/h1&gt;&lt;div&gt;Implementation is build-time selectable depending on your target environment&lt;/div&gt;" style="text;html=1;strokeColor=none;fillColor=none;spacing=5;spacingTop=-20;whiteSpace=wrap;overflow=hidden;rounded=0;align=right;" parent="1" vertex="1">
                    <mxGeometry x="20" y="370" width="190" height="110" as="geometry"/>
                </mxCell>
            </root>
        </mxGraphModel>
    </diagram>
</mxfile>
